<svg width="706" height="172" viewBox="0 0 706 172" fill="none" xmlns="http://www.w3.org/2000/svg">
<path d="M154.249 141V63.256H173.911V124.276H204.76V141H154.249ZM239.56 141.904C230.972 141.904 224.795 141.075 221.028 139.418C217.262 137.685 214.851 134.898 213.796 131.056C212.817 127.139 212.327 120.848 212.327 112.185C212.327 103.446 212.817 97.156 213.796 93.314C214.851 89.472 217.262 86.7223 221.028 85.065C224.795 83.3323 230.972 82.466 239.56 82.466C248.148 82.466 254.326 83.3323 258.092 85.065C261.859 86.7223 264.232 89.472 265.211 93.314C266.266 97.156 266.793 103.446 266.793 112.185C266.793 120.848 266.266 127.139 265.211 131.056C264.232 134.898 261.859 137.685 258.092 139.418C254.326 141.075 248.148 141.904 239.56 141.904ZM239.56 127.779C242.724 127.779 244.871 127.478 246.001 126.875C247.207 126.197 247.922 124.916 248.148 123.033C248.45 121.15 248.6 117.534 248.6 112.185C248.6 106.761 248.45 103.107 248.148 101.224C247.922 99.3407 247.207 98.0977 246.001 97.495C244.871 96.8923 242.724 96.591 239.56 96.591C236.396 96.591 234.212 96.8923 233.006 97.495C231.876 98.0977 231.161 99.3407 230.859 101.224C230.633 103.107 230.52 106.761 230.52 112.185C230.52 117.534 230.633 121.15 230.859 123.033C231.161 124.916 231.876 126.197 233.006 126.875C234.212 127.478 236.396 127.779 239.56 127.779ZM284.57 97.495H274.061V83.37H284.57V79.754C284.57 72.296 285.398 67.0603 287.056 64.047C288.713 60.9583 291.538 59.0373 295.531 58.284C299.599 57.5307 306.605 57.154 316.549 57.154V70.036C312.104 70.036 308.978 70.1867 307.17 70.488C305.437 70.7893 304.269 71.392 303.667 72.296C303.139 73.2 302.876 74.8197 302.876 77.155V83.37H316.549V97.495H302.876V141H284.57V97.495ZM326.154 71.957V57.041H344.799V71.957H326.154ZM326.267 141V83.37H344.686V141H326.267Z" fill="#6095E6"/>
<path d="M426.052 141V91.506H425.261L408.65 141H395.316L378.705 91.506H377.914V141H359.608V63.256H386.615L401.983 108.117H402.774L418.029 63.256H444.923V141H426.052ZM494.921 134.107H493.904C490.966 139.305 485.429 141.904 477.293 141.904C472.396 141.904 468.667 141.075 466.106 139.418C463.62 137.685 461.963 135.275 461.134 132.186C460.305 129.022 459.891 124.766 459.891 119.417V83.37H478.084V113.767C478.084 117.986 478.235 120.924 478.536 122.581C478.913 124.238 479.591 125.293 480.57 125.745C481.549 126.197 483.357 126.423 485.994 126.423C488.555 126.423 490.401 126.084 491.531 125.406C492.736 124.653 493.527 123.41 493.904 121.677C494.281 119.944 494.469 117.195 494.469 113.428V83.37H512.662V141H495.373L494.921 134.107ZM548.807 141.904C545.191 141.904 541.198 141.753 536.829 141.452C532.535 141.151 528.768 140.774 525.529 140.322V127.214C532.008 127.817 537.959 128.118 543.383 128.118C546.999 128.118 549.56 128.005 551.067 127.779C552.574 127.553 553.515 127.176 553.892 126.649C554.344 126.046 554.57 125.067 554.57 123.711C554.57 122.581 554.419 121.79 554.118 121.338C553.892 120.811 553.402 120.434 552.649 120.208C551.896 119.982 550.577 119.756 548.694 119.53L535.247 117.835C530.727 117.232 527.676 115.537 526.094 112.75C524.587 109.887 523.834 105.631 523.834 99.981C523.834 94.9337 524.813 91.167 526.772 88.681C528.731 86.1197 531.367 84.4623 534.682 83.709C538.072 82.8803 542.441 82.466 547.79 82.466C551.481 82.466 555.248 82.6167 559.09 82.918C562.932 83.2193 566.021 83.6337 568.356 84.161V97.156C562.179 96.5533 556.642 96.252 551.745 96.252C548.43 96.252 546.057 96.3273 544.626 96.478C543.195 96.6287 542.178 97.0053 541.575 97.608C541.048 98.1353 540.784 99.0393 540.784 100.32C540.784 101.45 540.859 102.241 541.01 102.693C541.236 103.145 541.688 103.484 542.366 103.71C543.119 103.936 544.325 104.162 545.982 104.388L559.316 105.97C562.254 106.347 564.552 107.025 566.209 108.004C567.866 108.908 569.147 110.565 570.051 112.976C571.03 115.311 571.52 118.739 571.52 123.259C571.52 128.608 570.578 132.638 568.695 135.35C566.887 138.062 564.401 139.832 561.237 140.661C558.073 141.49 553.93 141.904 548.807 141.904ZM582.599 71.957V57.041H601.244V71.957H582.599ZM582.712 141V83.37H601.131V141H582.712ZM655.615 139.983C649.965 141.264 644.127 141.904 638.1 141.904C630.491 141.904 624.879 140.812 621.263 138.627C617.722 136.367 615.462 133.241 614.483 129.248C613.504 125.255 613.014 119.568 613.014 112.185C613.014 105.028 613.504 99.4537 614.483 95.461C615.538 91.393 617.835 88.229 621.376 85.969C624.992 83.6337 630.529 82.466 637.987 82.466C644.466 82.466 650.191 83.1063 655.163 84.387V97.495C651.095 96.8923 646.989 96.591 642.846 96.591C639.305 96.591 636.744 97.0053 635.162 97.834C633.655 98.5873 632.638 99.981 632.111 102.015C631.659 104.049 631.433 107.439 631.433 112.185C631.433 116.931 631.659 120.359 632.111 122.468C632.638 124.502 633.655 125.896 635.162 126.649C636.744 127.402 639.343 127.779 642.959 127.779C646.952 127.779 651.17 127.478 655.615 126.875V139.983Z" fill="#103C7E"/>
<path d="M116.396 54.176C114.854 54.176 113.368 53.3302 112.622 51.8614C104.987 36.8282 89.804 27.4896 72.9997 27.4896C56.1955 27.4896 41.0135 36.8282 33.3775 51.8608C32.3199 53.9433 29.7737 54.7731 27.6918 53.716C25.6093 52.6584 24.7784 50.1122 25.836 48.0297C34.9219 30.1433 52.9937 19.0313 72.9997 19.0313C93.0057 19.0313 111.078 30.143 120.163 48.0306C121.221 50.1131 120.39 52.6587 118.308 53.7166C117.694 54.028 117.04 54.176 116.396 54.176Z" fill="#103C7E"/>
<path d="M120.807 135.891L111.064 134.324L118.093 90.6198L127.836 92.1867C135.369 93.3984 140.494 100.487 139.282 108.02L136.641 124.444C135.429 131.978 128.34 137.103 120.807 135.891Z" fill="#6095E5"/>
<path d="M140.265 95.2556C137.441 91.3495 133.265 88.7768 128.507 88.0118L122.939 87.1164L123.465 83.8456C123.836 81.5396 122.267 79.3695 119.961 78.9985L97.4134 75.3725C96.305 75.1937 95.1732 75.4635 94.2644 76.1207C93.3556 76.778 92.7445 77.769 92.5663 78.8765L83.1427 137.473C82.7717 139.779 84.3409 141.949 86.6467 142.32L109.195 145.946C109.418 145.982 109.643 146 109.866 146C110.75 146 111.618 145.723 112.344 145.198C113.252 144.541 113.863 143.55 114.042 142.442L114.568 139.172L120.135 140.067C121.088 140.22 122.057 140.298 123.016 140.298C131.916 140.298 139.401 133.913 140.815 125.117L143.457 108.692C144.223 103.933 143.089 99.1617 140.265 95.2556ZM92.1653 134.641L100.246 84.3946L114.443 86.6775L111.644 104.083L106.889 133.653C106.889 133.653 106.889 133.654 106.889 133.654L106.363 136.923L92.1653 134.641ZM135.106 107.349L132.464 123.773C131.713 128.447 127.74 131.839 123.016 131.839C122.505 131.839 121.988 131.798 121.478 131.716L115.91 130.821L117.964 118.051L121.596 95.4675L127.163 96.3628C129.691 96.7692 131.91 98.1362 133.41 100.211C134.91 102.286 135.513 104.821 135.106 107.349Z" fill="#103C7E"/>
<path d="M25.1927 135.891L34.9356 134.324L27.9074 90.6204L18.1645 92.1873C10.6315 93.3989 5.50636 100.488 6.71771 108.021L9.35883 124.444C10.5707 131.978 17.6597 137.103 25.1927 135.891Z" fill="#6095E5"/>
<path d="M72.9997 0C33.3559 0 1.10327 32.2526 1.10327 71.8964C1.10327 80.1742 2.49712 88.2613 5.24117 95.9745C2.78113 99.7397 1.82358 104.221 2.54246 108.692L5.18414 125.116C6.5988 133.912 14.0842 140.297 22.9827 140.297C22.9827 140.297 22.983 140.297 22.9836 140.297C23.9423 140.297 24.9118 140.22 25.8648 140.066L31.4322 139.171L31.9583 142.442C32.1363 143.549 32.7471 144.54 33.6564 145.198C34.3819 145.722 35.2499 145.999 36.1339 145.999C36.3571 145.999 36.5821 145.982 36.8054 145.946L59.3533 142.32C61.6593 141.949 63.228 139.779 62.8573 137.473L57.5146 104.251C57.1436 101.945 54.9753 100.375 52.6675 100.747C50.3615 101.118 48.7928 103.288 49.1635 105.594L53.8347 134.64L39.6376 136.923L39.1118 133.654C39.1118 133.653 39.1118 133.653 39.1118 133.652L34.3565 104.083L31.5577 86.6772L45.7548 84.3943L46.4434 88.6773C46.8144 90.9831 48.9827 92.5529 51.2905 92.1813C53.5965 91.8103 55.1652 89.6403 54.7945 87.3342L53.4343 78.8759C53.2564 77.7684 52.6456 76.7775 51.7362 76.1202C50.8274 75.4629 49.6939 75.1931 48.5872 75.3719L26.0393 78.998C23.7333 79.369 22.1646 81.539 22.5353 83.8451L23.0614 87.1158L17.4941 88.0112C15.5909 88.3169 13.7839 88.9166 12.1166 89.7706C10.4219 83.9956 9.56243 78.0059 9.56243 71.8964C9.56243 36.9166 38.0207 8.45859 73.0003 8.45859C107.98 8.45859 136.438 36.9169 136.438 71.8964C136.438 74.2322 138.332 76.1256 140.667 76.1256C143.003 76.1256 144.896 74.2322 144.896 71.8964C144.896 32.2526 112.644 0 72.9997 0ZM18.8363 96.3628L24.4037 95.4675L28.0357 118.051L30.0891 130.821L24.5217 131.716C24.0113 131.798 23.4937 131.839 22.983 131.839C18.26 131.839 14.2866 128.447 13.5349 123.773L10.8933 107.35C10.4869 104.821 11.0892 102.286 12.5891 100.211C14.089 98.1357 16.3081 96.7692 18.8363 96.3628Z" fill="#103C7E"/>
</svg>
